<svg xmlns="http://www.w3.org/2000/svg" xmlns:xlink="http://www.w3.org/1999/xlink" version="1.1" x="0px" y="0px" viewBox="0 0 100 125" enable-background="new 0 0 100 100" xml:space="preserve"><g><path d="M58.1,57.7c-1.8,0.9-2.6,3.1-1.7,4.9c0.9,1.8,3.1,2.6,4.9,1.7c1.8-0.9,2.6-3.1,1.7-4.9C62.1,57.6,59.9,56.8,58.1,57.7z    M60.6,63c-1.2,0.5-2.5,0.1-3.1-1.1c-0.5-1.2-0.1-2.5,1.1-3.1c1.2-0.5,2.5-0.1,3.1,1.1C62.3,61.1,61.8,62.5,60.6,63z"/><path d="M81.3,46.6c-1.8,0.9-2.6,3.1-1.7,4.9c0.9,1.8,3.1,2.6,4.9,1.7c1.8-0.9,2.6-3.1,1.7-4.9C85.3,46.5,83.1,45.7,81.3,46.6z    M83.9,52c-1.2,0.5-2.5,0.1-3.1-1.1c-0.5-1.2-0.1-2.5,1.1-3.1c1.2-0.5,2.5-0.1,3.1,1.1C85.5,50.1,85,51.4,83.9,52z"/><path d="M88.4,42.7c-0.1,0-0.1,0.1-0.2,0.2c-3.1-3.2-9.7-8.3-19.5-3.7c-4.9,2.3-8.4,6.3-9.4,13.2c-3.3,1.6-9.1,6.1-8.5,7.4   c0.1,0.2,0.2,0.5,0.3,0.6c-0.3,0.3-0.4,0.6-0.2,0.9l0.5,1.3c0.2,0.3,0.5,0.5,0.8,0.5c0,0.1,0.1,0.1,0.1,0.1   c0.5,0.9,1.5,1.3,2.4,0.9l1.2-0.5c-0.1-0.2-0.3-0.4-0.4-0.5c-1.1-2.2-0.1-4.8,2.1-5.9s4.8-0.1,5.9,2.1c0.1,0.2,0.2,0.4,0.2,0.6   l15.5-7.4c-0.1-0.2-0.3-0.4-0.4-0.5c-1.1-2.2-0.1-4.8,2.1-5.9c2.2-1.1,4.8-0.1,5.9,2.1c0.1,0.2,0.2,0.4,0.2,0.6l2.1-1   c0.8-0.4,1.2-1.3,1-2.1c0.1-0.3,0.1-0.5,0-0.8l-0.7-1.4C89.2,42.8,88.7,42.5,88.4,42.7z M71.4,46.6c-1,0.5-10.9,5.2-10.9,5.2   s0.3-7.7,7.9-11.4C69.2,42,71.4,46.6,71.4,46.6z M72.4,46.2c0,0-2.3-4.6-3-6.2c8.2-3.9,14.4,0.8,14.4,0.8   C83.8,40.7,73.4,45.6,72.4,46.2z"/></g><g><path d="M18,66.7c-1.9,0.5-3.1,2.3-2.6,4.3s2.3,3.2,4.2,2.8s3.1-2.3,2.6-4.3C21.8,67.5,19.9,66.4,18,66.7z M19.3,72.5   c-1.2,0.3-2.3-0.5-2.6-1.7c-0.3-1.3,0.5-2.4,1.6-2.7c1.2-0.3,2.3,0.5,2.6,1.7C21.3,71.1,20.5,72.2,19.3,72.5z"/><path d="M42.4,61.2c-1.9,0.5-3.1,2.3-2.6,4.3s2.3,3.2,4.2,2.8c1.9-0.5,3.1-2.3,2.6-4.3C46.2,62,44.3,60.8,42.4,61.2z M43.7,67   c-1.2,0.3-2.3-0.5-2.6-1.7c-0.3-1.3,0.5-2.4,1.6-2.7c1.2-0.3,2.3,0.5,2.6,1.7C45.6,65.5,44.9,66.7,43.7,67z"/><path d="M49.8,59c-0.1,0-0.2,0.1-0.2,0.1c-2.2-3.9-7.5-10.3-17.7-7.9c-5,1.2-9.3,4.2-11.7,10.8c-3.5,0.8-9.9,3.9-9.5,5.3   c0.1,0.2,0.1,0.5,0.2,0.7c-0.3,0.2-0.5,0.5-0.4,0.8l0.3,1.4c0.1,0.4,0.4,0.5,0.7,0.6c0,0.1,0,0.1,0,0.1c0.2,1,1.2,1.6,2.2,1.4   L15,72c-0.1-0.2-0.2-0.4-0.2-0.6c-0.5-2.3,0.9-4.7,3.2-5.2s4.6,1,5.1,3.3c0.1,0.2,0.1,0.5,0.1,0.6l16.2-3.7   c-0.1-0.2-0.2-0.4-0.2-0.6c-0.5-2.3,0.9-4.7,3.2-5.2s4.6,1,5.1,3.3c0.1,0.2,0.1,0.5,0.1,0.6l2.3-0.5c0.8-0.2,1.4-1,1.4-1.8   c0.2-0.2,0.2-0.5,0.2-0.8l-0.4-1.5C50.6,59.3,50.3,58.9,49.8,59z M32.9,59c-1,0.3-11.2,2.5-11.2,2.5s1.6-7.5,9.6-9.3   C31.8,54,32.9,59,32.9,59z M34,58.8c0,0-1.2-5-1.5-6.8c8.6-2,13.5,4,13.5,4S35,58.5,34,58.8z"/></g><polygon points="95,94.8 5,94.8 5,76.1 95,56 "/><path d="M55.9,61.6l3.8-1.4L56,59.1l2.2-2.7L54.8,57l1.5-4.8l-3.6,3.5l-1.3-3.2l-1.2,3.2l-2.8-2.9l0.7,4.1l-3.4-0.5l2.2,2.6  l-4.1,1.4l4,1.1L44.7,64l3.3-0.5l-1,4l3.1-2.7l1.3,3.2l1.2-3.2l3.1,2.8l-1-4l3.4,0.5L55.9,61.6z M51.4,60.3L51.4,60.3L51.4,60.3  h-0.2v-0.1v-0.1V60h0.1h0.1h0.1v0.1L51.4,60.3L51.4,60.3z"/><text x="0" y="115" fill="#000000" font-size="5px" font-weight="bold" font-family="'Helvetica Neue', Helvetica, Arial-Unicode, Arial, Sans-serif">Created by Raz Cohen</text><text x="0" y="120" fill="#000000" font-size="5px" font-weight="bold" font-family="'Helvetica Neue', Helvetica, Arial-Unicode, Arial, Sans-serif">from the Noun Project</text></svg>